<!-- Generator: Adobe Illustrator 19.2.1, SVG Export Plug-In  -->
<svg version="1.1"
	 xmlns="http://www.w3.org/2000/svg" xmlns:xlink="http://www.w3.org/1999/xlink" xmlns:a="http://ns.adobe.com/AdobeSVGViewerExtensions/3.0/"
	 x="0px" y="0px" width="70.3px" height="35px" viewBox="0 0 70.3 26" style="enable-background:new 0 0 70.3 26;"
	 xml:space="preserve">
<style type="text/css">
	.st0{fill:#6AB445;}
	.st1{fill:#189CD8;}
	.st2{fill:#E31D39;}
</style>
<defs>
</defs>
<g>
	<polygon points="23.6,0 23.6,3.6 20,3.6 20,2.9 	"/>
	<rect x="20" y="5.3" width="3.6" height="14.1"/>
	<path d="M34.4,19.4c-0.8,0-1.5-0.1-2.1-0.2l0.9-2.9c0.4,0.1,0.8,0.2,1.2,0.2c0.7,0,1.4-0.1,2-0.3c0.6-0.2,1.2-0.5,1.6-0.9
		c0.5-0.4,0.8-0.8,1.1-1.3c0.3-0.5,0.4-1.1,0.4-1.6c0-0.6-0.1-1.1-0.4-1.6c-0.3-0.5-0.6-0.9-1.1-1.3c-0.5-0.4-1-0.7-1.6-0.9
		c-0.6-0.2-1.3-0.3-2-0.3c-0.7,0-1.4,0.1-2,0.3c-0.6,0.2-1.2,0.5-1.6,0.9c-0.5,0.4-0.8,0.8-1.1,1.3c-0.3,0.5-0.4,1-0.4,1.6v0.1V26
		l-3.5-2.9V12.4v-0.1c0-1,0.2-1.9,0.7-2.7c0.5-0.9,1.1-1.6,1.8-2.2C29.1,6.8,30,6.2,31,5.9c1.1-0.4,2.2-0.6,3.4-0.6
		c1.2,0,2.3,0.2,3.4,0.6c1.1,0.4,2,0.9,2.8,1.5C41.3,8,42,8.8,42.4,9.6c0.5,0.9,0.7,1.8,0.7,2.7c0,1-0.2,1.9-0.7,2.8
		c-0.5,0.9-1.1,1.6-1.9,2.2c-0.8,0.6-1.7,1.1-2.8,1.5C36.7,19.3,35.6,19.4,34.4,19.4"/>
	<path d="M44.3,12.4c0-1,0.2-1.9,0.6-2.7C45.4,8.8,46,8,46.8,7.4c0.8-0.6,1.7-1.2,2.8-1.5c1.1-0.4,2.2-0.6,3.4-0.6v2.9
		c-0.7,0-1.3,0.1-2,0.3c-0.6,0.2-1.2,0.5-1.6,0.9c-0.5,0.4-0.8,0.8-1.1,1.3c-0.3,0.5-0.4,1-0.4,1.6v7.1h-3.6V12.4z"/>
	<path d="M61.6,5.3c1.2,0,2.3,0.2,3.3,0.6c1.1,0.4,2,0.9,2.8,1.5c0.8,0.6,1.4,1.4,1.9,2.2c0.5,0.9,0.7,1.8,0.7,2.8
		c0,1-0.2,1.9-0.7,2.8c-0.5,0.9-1.1,1.6-1.9,2.2C67,18,66,18.5,65,18.9c-1.1,0.4-2.2,0.6-3.3,0.6c-1.2,0-2.3-0.2-3.4-0.6
		c-1.1-0.4-2-0.9-2.7-1.5c-0.8-0.6-1.4-1.4-1.8-2.2c-0.5-0.9-0.7-1.8-0.7-2.8c0-1,0.2-1.9,0.7-2.8c0.5-0.9,1.1-1.6,1.8-2.2
		c0.8-0.6,1.7-1.1,2.7-1.5C59.3,5.5,60.4,5.3,61.6,5.3 M61.6,16.5c0.7,0,1.4-0.1,2-0.3c0.6-0.2,1.2-0.5,1.6-0.9
		c0.5-0.4,0.8-0.8,1.1-1.3c0.3-0.5,0.4-1,0.4-1.6c0-0.6-0.1-1.1-0.4-1.6c-0.3-0.5-0.6-0.9-1.1-1.3c-0.5-0.4-1-0.7-1.6-0.9
		c-0.6-0.2-1.3-0.3-2-0.3c-0.7,0-1.4,0.1-2,0.3C59,8.8,58.5,9.1,58,9.4c-0.5,0.4-0.8,0.8-1.1,1.3c-0.3,0.5-0.4,1-0.4,1.6
		c0,0.6,0.1,1.1,0.4,1.6c0.3,0.5,0.6,0.9,1.1,1.3c0.5,0.4,1,0.7,1.6,0.9C60.3,16.4,60.9,16.5,61.6,16.5"/>
	<g>
		<path class="st0" d="M0,14.5c0,0.4,0.1,0.7,0.1,1.1c0.2-2.7,1.1-4.5,2.5-5.6C2.6,9.7,2.5,9.3,2.5,9C0.9,10.4,0,12.3,0,14.5z"/>
		<path class="st0" d="M11.9,10.7c0.3-0.2,0.5-0.5,0.6-0.9c0.3-1-0.1-2-0.9-2.4c0,0-0.1,0-0.1,0C9.9,6.8,8.2,6.6,6.6,7
			c0,0.8,0.2,1.5,0.4,2.2C9.3,9.4,11.3,10.4,11.9,10.7z"/>
		<path class="st0" d="M10.5,11L10.5,11C10.6,11,10.6,11,10.5,11c0.3,0.1,0.6,0.1,0.8,0c-0.6-0.3-2.2-1.1-4.1-1.4
			c0.2,0.4,0.4,0.8,0.7,1.2C8.8,10.8,9.7,10.8,10.5,11z"/>
		<path class="st0" d="M0.2,15.8c0.6,3.3,4,5.2,7.5,4.9c0,0,0,0,0,0c-2.9,0.2-5.6-1.6-5.5-4.4c0.1-1.3,0.7-2.5,1.6-3.4
			c-0.4-0.7-0.8-1.5-1.1-2.3C1.5,11.5,0.5,13.2,0.2,15.8z"/>
		<path class="st1" d="M7.1,14.7c-0.8-0.8-1.3-1.9-1.5-3.1c-0.1-0.7-0.2-1.4-0.2-2c0-0.2,0-0.3,0-0.5c0-0.7,0.1-1.3,0.1-1.8
			C5.6,6.2,5.8,5.4,5.9,5C5.6,4.7,5.2,4.6,4.8,4.5C3.7,4.4,2.7,5.1,2.5,6.1c0,0,0,0.1,0,0.1c-0.1,1-0.1,1.9,0,2.8
			c0,0.4,0.1,0.7,0.2,1c0,0.2,0.1,0.3,0.1,0.5c0.3,0.8,0.6,1.6,1.1,2.3c0.6,0.9,1.3,1.8,2.2,2.4c0.5,0,1,0,1.5-0.1
			C7.4,15,7.2,14.8,7.1,14.7z"/>
		<path class="st1" d="M7.9,10.9c-0.3-0.4-0.5-0.8-0.7-1.2C7.2,9.5,7.1,9.3,7.1,9.1C6.8,8.4,6.6,7.7,6.6,7c0-0.2,0-0.4,0-0.6l0,0
			c0,0,0-0.1,0-0.1c0-0.3-0.1-0.5-0.2-0.7C6.3,5.8,6.2,6.4,6.1,7.1C6,7.7,5.9,8.3,5.9,9.1c0,0.2,0,0.3,0,0.5c0,0.6,0.1,1.2,0.2,1.8
			c0.2,1.1,0.6,2.1,1.4,2.9c0.2,0.2,0.5,0.5,0.8,0.7c1-0.3,2-0.8,2.8-1.4C9.8,13,8.7,12.1,7.9,10.9z"/>
		<path class="st1" d="M17.6,7.2C17.5,7.2,17.5,7.2,17.6,7.2c0.7,2.3,0.1,4.8-1.6,6.1c-0.3,1.1-0.9,2.1-1.7,3
			C17.8,14.4,18.8,10.6,17.6,7.2z"/>
		<path class="st2" d="M16.1,9.5c-0.1-0.4-0.2-0.8-0.3-1.1c0.2,2.3,0,4.1-0.8,5.4c-0.3,0.5-0.6,0.9-1,1.2c-0.7,0.6-1.6,1-2.5,1.2
			c-0.3,0.1-0.5,0.1-0.8,0.1c-0.8,0.1-1.6,0.1-2.4,0.1c-1.7-0.1-3.2-0.5-3.7-0.7c-0.2,0.3-0.4,0.6-0.5,1.1c-0.1,1,0.5,2.1,1.4,2.3
			c0,0,0.1,0,0.1,0c3.4,0.6,6.7-0.7,8.7-2.9c0.8-0.9,1.3-1.9,1.7-3C16.3,12.1,16.4,10.8,16.1,9.5z"/>
		<path class="st2" d="M15.7,8.3c-1.4-3.4-5.5-4.7-8.7-3.6c0,0,0,0,0,0c3-0.7,6.1,0.5,6.5,3.5c0.3,2.1-0.8,4-2.5,5.4
			c-0.8,0.6-1.8,1.1-2.8,1.4C8,15,7.8,15.1,7.6,15.1c-0.5,0.1-1,0.1-1.5,0.1c0,0-0.1,0-0.1,0l0,0c0,0-0.1,0-0.1,0
			c-0.3,0-0.5,0-0.7,0.2c0.3,0.1,0.9,0.3,1.7,0.4C7.5,15.9,8.2,16,9,16c0.4,0,0.7,0,1.1,0c1.3-0.1,2.5-0.5,3.5-1.3
			c0.2-0.2,0.4-0.4,0.6-0.6C15.3,12.7,15.9,10.8,15.7,8.3z"/>
	</g>
</g>
</svg>
